<svg xmlns="http://www.w3.org/2000/svg" viewBox="0 0 12.482 12.482">
  <defs>
    <style>
      .cls-1 {
        fill: #fff;
      }
    </style>
  </defs>
  <path id="cancel" class="cls-1" d="M8.036,6.44a.275.275,0,0,1,0-.4l4.275-4.275a.616.616,0,0,0,.171-.4.616.616,0,0,0-.171-.4l-.8-.8a.616.616,0,0,0-.4-.171.517.517,0,0,0-.4.171L6.44,4.446a.275.275,0,0,1-.4,0L1.767.171A.616.616,0,0,0,1.368,0a.616.616,0,0,0-.4.171l-.8.8a.616.616,0,0,0-.171.4.616.616,0,0,0,.171.4L4.446,6.042a.275.275,0,0,1,0,.4L.171,10.715a.551.551,0,0,0,0,.8l.8.8a.616.616,0,0,0,.4.171.616.616,0,0,0,.4-.171L6.042,8.036a.275.275,0,0,1,.4,0l4.275,4.275a.551.551,0,0,0,.8,0l.8-.8a.551.551,0,0,0,0-.8Z"/>
</svg>
