<svg id="Group_399" data-name="Group 399" xmlns="http://www.w3.org/2000/svg" viewBox="0 0 18 18">
  <defs>
    <style>
      .cls-1 {
        fill: #656565;
      }
    </style>
  </defs>
  <path id="Path_435" data-name="Path 435" class="cls-1" d="M9,0a9,9,0,1,0,9,9A9.01,9.01,0,0,0,9,0ZM9,16.085A7.085,7.085,0,1,1,16.085,9,7.093,7.093,0,0,1,9,16.085Z"/>
  <path id="Path_436" data-name="Path 436" class="cls-1" d="M49.593,22.434H45.548V17.571a.741.741,0,1,0-1.482,0v5.6a.741.741,0,0,0,.741.741h4.786a.741.741,0,1,0,0-1.482Z" transform="translate(-35.902 -13.712)"/>
</svg>
