<svg xmlns="http://www.w3.org/2000/svg" viewBox="0 0 31.216 30.993">
  <defs>
    <style>
      .cls-1 {
        fill: #66bb6a;
      }

      .cls-2 {
        fill: #fff;
      }
    </style>
  </defs>
  <g id="chat_1_" data-name="chat (1)" transform="translate(0 -0.207)">
    <path id="Path_441" data-name="Path 441" class="cls-1" d="M31.216,8.818A8.621,8.621,0,0,0,22.6.207H9.149C4.4.207,0,4.07,0,8.818V17.43c0,4.567,4.114,8.3,8.611,8.584V23.888a.538.538,0,1,1,1.076,0V31.2l.731-.731a15.019,15.019,0,0,1,10.689-4.428h1.5a8.621,8.621,0,0,0,8.611-8.611Z"/>
    <path id="Path_442" data-name="Path 442" class="cls-2" d="M23.073,17.283H15.538a.538.538,0,0,1,0-1.076h7.535a.538.538,0,1,1,0,1.076Z" transform="translate(-6.927 -7.389)"/>
    <path id="Path_443" data-name="Path 443" class="cls-2" d="M30.07,25.283H15.538a.538.538,0,0,1,0-1.076H30.07a.538.538,0,0,1,0,1.076Z" transform="translate(-6.927 -11.083)"/>
    <path id="Path_444" data-name="Path 444" class="cls-2" d="M30.07,33.283H15.538a.538.538,0,0,1,0-1.076H30.07a.538.538,0,0,1,0,1.076Z" transform="translate(-6.927 -14.777)"/>
  </g>
</svg>
