<svg xmlns="http://www.w3.org/2000/svg" viewBox="0 0 34.483 34.22">
  <defs>
    <style>
      .cls-1 {
        fill: #178ad1;
      }
    </style>
  </defs>
  <g id="following" transform="translate(0 -1.25)">
    <path id="XMLID_351_" class="cls-1" d="M52.25,7.847a6.6,6.6,0,1,0,6.6-6.6A6.6,6.6,0,0,0,52.25,7.847Z" transform="translate(-46.757)"/>
    <path id="XMLID_352_" class="cls-1" d="M186.616,185.749a1.577,1.577,0,0,0,2.23-2.23l-2.039-2.039,2.039-2.039a1.577,1.577,0,0,0-2.23-2.23l-3.154,3.154a1.577,1.577,0,0,0,0,2.23Z" transform="translate(-163.761 -157.049)"/>
    <path id="XMLID_439_" class="cls-1" d="M1.577,134.622h13.2a11.038,11.038,0,1,0-.2-13.407A12.09,12.09,0,0,0,0,133.045,1.577,1.577,0,0,0,1.577,134.622ZM23.444,119.9a7.885,7.885,0,1,1-7.885,7.885A7.894,7.894,0,0,1,23.444,119.9Z" transform="translate(0 -103.357)"/>
  </g>
</svg>
