<svg xmlns="http://www.w3.org/2000/svg" viewBox="0 0 18.932 25.242"><defs><style>.a{fill:#3a3a3a;}</style></defs><g transform="translate(-128.571 -602.15)"><g transform="translate(128.571 602.15)"><path class="a" d="M79.25,0H67.681A3.685,3.685,0,0,0,64,3.681V24.716a.526.526,0,0,0,.325.486.524.524,0,0,0,.572-.115l5.941-5.941c2.323,2.294,5.525,5.471,5.87,5.86a.52.52,0,0,0,.337.225.531.531,0,0,0,.589-.317.321.321,0,0,0,.036-.2l0-5.259a.526.526,0,0,0-1.052,0v3.962c-.9-.93-2.519-2.531-5.415-5.387a.527.527,0,0,0-.741,0l-5.412,5.412V3.681a2.633,2.633,0,0,1,2.629-2.629h9.467a2.617,2.617,0,0,0-.527,1.578v2.1a.526.526,0,0,0,1.052,0v-2.1A1.58,1.58,0,0,1,79.25,1.052.526.526,0,1,0,79.25,0Z" transform="translate(-64)"/></g><g transform="translate(141.192 602.15)"><path class="a" d="M322.629,0a.526.526,0,1,0,0,1.052,1.58,1.58,0,0,1,1.578,1.578v.526h-3.681a.526.526,0,0,0,0,1.052h4.207a.526.526,0,0,0,.526-.526V2.629A2.633,2.633,0,0,0,322.629,0Z" transform="translate(-320)"/></g><g transform="translate(135.934 608.461)"><path class="a" d="M219.119,128a5.785,5.785,0,1,0,5.785,5.785A5.791,5.791,0,0,0,219.119,128Zm0,10.517a4.733,4.733,0,1,1,4.733-4.733A4.739,4.739,0,0,1,219.119,138.517Z" transform="translate(-213.334 -128)"/></g><g transform="translate(139.089 613.719)"><path class="a" d="M282.066,234.667h-4.207a.526.526,0,1,0,0,1.052h4.207a.526.526,0,1,0,0-1.052Z" transform="translate(-277.333 -234.667)"/></g><g transform="translate(141.192 611.616)"><path class="a" d="M320.526,192a.526.526,0,0,0-.526.526v4.207a.526.526,0,1,0,1.052,0v-4.207A.526.526,0,0,0,320.526,192Z" transform="translate(-320 -192)"/></g></g></svg>