<svg xmlns="http://www.w3.org/2000/svg" viewBox="0 0 26.575 24.392"><defs><style>.a{fill:#3a3a3a;}</style></defs><g transform="translate(-77 -602)"><path class="a" d="M9.443,24.351H15.2a.443.443,0,1,0,0-.886H9.443a.443.443,0,0,0,0,.886Z" transform="translate(71.986 587.836)"/><path class="a" d="M20.959,29.465H9.443a.443.443,0,1,0,0,.886H20.959a.443.443,0,1,0,0-.886Z" transform="translate(71.986 584.494)"/><path class="a" d="M20.959,35.465H9.443a.443.443,0,1,0,0,.886H20.959a.443.443,0,1,0,0-.886Z" transform="translate(71.986 581.151)"/><path class="a" d="M23.95,2.5,8.827,2.465A2.629,2.629,0,0,0,6.2,5.092v2.27l-3.574.008A2.629,2.629,0,0,0,0,10v9.364a2.629,2.629,0,0,0,2.627,2.626H5.315v4.429a.443.443,0,0,0,.771.3l4.3-4.728,7.364-.03a2.629,2.629,0,0,0,2.627-2.626v-.05l2.33,2.563a.443.443,0,0,0,.771-.3V17.113h.474a2.629,2.629,0,0,0,2.627-2.626V5.123A2.63,2.63,0,0,0,23.95,2.5ZM19.489,19.328a1.743,1.743,0,0,1-1.742,1.74l-7.561.031a.443.443,0,0,0-.326.145L6.2,25.268V21.542a.443.443,0,0,0-.443-.443H2.627a1.743,1.743,0,0,1-1.741-1.74V9.995A1.743,1.743,0,0,1,2.627,8.254l4.016-.008h0l11.1-.023a1.743,1.743,0,0,1,1.741,1.741v9.364Zm6.2-4.841a1.742,1.742,0,0,1-1.741,1.74h-.917a.443.443,0,0,0-.443.443V20.4L20.374,17.96v-8a2.63,2.63,0,0,0-2.627-2.627l-10.66.022V5.091A1.742,1.742,0,0,1,8.827,3.35l15.122.031h0A1.743,1.743,0,0,1,25.69,5.122v9.364Z" transform="translate(77 599.535)"/></g></svg>