<svg xmlns="http://www.w3.org/2000/svg" viewBox="0 0 23.008 21.392">
  <defs>
    <style>
      .cls-1 {
        fill: #ff7043;
      }
    </style>
  </defs>
  <g id="love" transform="translate(-29 -604)">
    <path id="Path_47" data-name="Path 47" class="cls-1" d="M22.97,8.2c-.336-3.7-2.952-6.379-6.227-6.379a6.19,6.19,0,0,0-5.3,3.055A5.965,5.965,0,0,0,6.265,1.826C2.991,1.826.374,4.508.039,8.2a6.577,6.577,0,0,0,.2,2.424A10.4,10.4,0,0,0,3.42,15.944l8.016,7.274,8.153-7.274a10.4,10.4,0,0,0,3.185-5.316A6.592,6.592,0,0,0,22.97,8.2Zm-1.058,2.221A9.509,9.509,0,0,1,19,15.287l-7.556,6.741-7.426-6.74A9.515,9.515,0,0,1,1.1,10.425a5.747,5.747,0,0,1-.184-2.08L.918,8.3c.288-3.239,2.536-5.59,5.347-5.59a5.187,5.187,0,0,1,4.766,3.325L11.439,7l.408-.966a5.346,5.346,0,0,1,4.9-3.325c2.81,0,5.059,2.351,5.352,5.632A5.74,5.74,0,0,1,21.913,10.426Z" transform="translate(29 602.174)"/>
    <path id="Path_48" data-name="Path 48" class="cls-1" d="M10.424,7.9A4.43,4.43,0,0,0,6,12.329a.442.442,0,0,0,.885,0,3.544,3.544,0,0,1,3.54-3.54.442.442,0,0,0,0-.885Z" transform="translate(25.656 598.785)"/>
  </g>
</svg>
