<svg xmlns="http://www.w3.org/2000/svg" viewBox="0 0 24 28.095">
  <defs>
    <style>
      .cls-1 {
        fill: #fff;
      }
    </style>
  </defs>
  <g id="stopwatch-tool-to-control-test-time" transform="translate(-2.317)">
    <g id="Group_436" data-name="Group 436" transform="translate(2.317)">
      <path id="Path_454" data-name="Path 454" class="cls-1" d="M26.317,8.78,22.875,4.652,20.487,6.644A11.6,11.6,0,0,0,16.981,5.08V3.188h1.912V0H11.058V3.188h2.186V4.725a11.72,11.72,0,1,0,10.919,5.851Zm-11.84,17.1V23.139h-.455V25.91a9.474,9.474,0,0,1-6.433-2.524.728.728,0,0,0,.345-.61.745.745,0,0,0-.745-.744.733.733,0,0,0-.587.308A9.472,9.472,0,0,1,4.5,16.4H6.869v-.455H4.526a9.477,9.477,0,0,1,2.523-6.01.735.735,0,0,0,.564.273.743.743,0,0,0,.519-1.276,9.459,9.459,0,0,1,5.889-2.057v3.194h.455V6.9A9.443,9.443,0,0,1,19.81,8.854a.733.733,0,0,0,.566,1.213.746.746,0,0,0,.533-.228,9.477,9.477,0,0,1,2.609,6.1H21.278V16.4h2.263a9.47,9.47,0,0,1-1.474,5.061.726.726,0,0,0-.454-.17.745.745,0,0,0-.745.745.737.737,0,0,0,.325.6A9.5,9.5,0,0,1,14.476,25.885Z" transform="translate(-2.317)"/>
      <path id="Path_455" data-name="Path 455" class="cls-1" d="M16.234,10.708v3.675a3.521,3.521,0,0,1,2.894,3.235l3.612-.591A7.176,7.176,0,0,0,16.234,10.708Z" transform="translate(-3.939 -1.248)"/>
    </g>
  </g>
</svg>
